<svg xmlns="http://www.w3.org/2000/svg" width="1640" height="564" viewBox="0 143 1640 564"><rect x="0" y="143" width="1640" height="564" rx="0" ry="0" fill="#f8f8f8" /><rect x="45" y="300" width="230" height="250" rx="16" ry="16" fill="#ffffff" stroke="rgba(31,29,26,0.13)" stroke-width="1.5" /><circle cx="160.0" cy="345.2" r="7.14" fill="none" stroke="#5a7a6a" stroke-width="2.6"/><path d="M146.74,369 Q146.74,354.55 160.0,354.55 Q173.26,354.55 173.26,369" fill="none" stroke="#5a7a6a" stroke-width="2.6" stroke-linecap="round"/><text x="160.0" y="400" font-family="'Instrument Sans', system-ui, sans-serif" font-size="22" fill="#1f1d1a" font-weight="700" text-anchor="middle">Searching user</text><line x1="75" y1="418" x2="245" y2="418" stroke="rgba(31,29,26,0.13)" stroke-width="1.4"/><circle cx="95" cy="445" r="3.2" fill="#5a7a6a"/><text x="111" y="450" font-family="'Instrument Sans', system-ui, sans-serif" font-size="18.5" fill="#1f1d1a" font-weight="400" text-anchor="start">identity</text><circle cx="95" cy="473" r="3.2" fill="#5a7a6a"/><text x="111" y="478" font-family="'Instrument Sans', system-ui, sans-serif" font-size="18.5" fill="#1f1d1a" font-weight="400" text-anchor="start">groups</text><circle cx="95" cy="501" r="3.2" fill="#5a7a6a"/><text x="111" y="506" font-family="'Instrument Sans', system-ui, sans-serif" font-size="18.5" fill="#1f1d1a" font-weight="400" text-anchor="start">roles</text><rect x="360" y="300" width="300" height="250" rx="16" ry="16" fill="#e8eeeb" stroke="#5a7a6a" stroke-width="2.4" /><rect x="360" y="300" width="300" height="46" rx="16" ry="16" fill="#5a7a6a" /><rect x="360" y="322" width="300" height="24" rx="0" ry="0" fill="#5a7a6a" /><path d="M379,314.2 L401,314.2 L392.42,323.55 L392.42,334 L387.58,330.7 L387.58,323.55 Z" fill="none" stroke="#ffffff" stroke-width="2.6" stroke-linejoin="round"/><text x="412" y="331" font-family="'Instrument Sans', system-ui, sans-serif" font-size="21" fill="#ffffff" font-weight="700" text-anchor="start">Permission filter</text><circle cx="386" cy="377" r="3.2" fill="#5a7a6a"/><text x="400" y="382" font-family="'Instrument Sans', system-ui, sans-serif" font-size="16.5" fill="#1f1d1a" font-weight="400" text-anchor="start">intersects the user&#x27;s principals</text><circle cx="386" cy="409" r="3.2" fill="#5a7a6a"/><text x="400" y="414" font-family="'Instrument Sans', system-ui, sans-serif" font-size="16.5" fill="#1f1d1a" font-weight="400" text-anchor="start">with each document&#x27;s access</text><text x="400" y="436" font-family="'Instrument Sans', system-ui, sans-serif" font-size="16.5" fill="#1f1d1a" font-weight="400" text-anchor="start">set</text><circle cx="386" cy="463" r="3.2" fill="#5a7a6a"/><text x="400" y="468" font-family="'Instrument Sans', system-ui, sans-serif" font-size="16.5" fill="#1f1d1a" font-weight="700" text-anchor="start">in-engine · fail-closed</text><rect x="760" y="193" width="360" height="104" rx="16" ry="16" fill="#eef1e6" stroke="#7a8b5e" stroke-width="1.8" /><rect x="760" y="193" width="6" height="104" rx="3" fill="#7a8b5e"/><circle cx="806" cy="245.0" r="16" fill="none" stroke="#7a8b5e" stroke-width="2.4"/><ellipse cx="806" cy="245.0" rx="6.72" ry="16" fill="none" stroke="#7a8b5e" stroke-width="2"/><line x1="790" y1="245.0" x2="822" y2="245.0" stroke="#7a8b5e" stroke-width="2"/><path d="M792.4,237.8 H819.6 M792.4,252.2 H819.6" stroke="#7a8b5e" stroke-width="1.6"/><text x="846" y="237" font-family="'Instrument Sans', system-ui, sans-serif" font-size="20" fill="#1f1d1a" font-weight="700" text-anchor="start">Public</text><text x="846" y="263" font-family="'Instrument Sans', system-ui, sans-serif" font-size="14.5" fill="#4a463f" font-weight="400" text-anchor="start">visible to everyone</text><rect x="760" y="313" width="360" height="104" rx="16" ry="16" fill="#f0eaf1" stroke="#8a6f8e" stroke-width="1.8" /><rect x="760" y="313" width="6" height="104" rx="3" fill="#8a6f8e"/><rect x="794.48" y="363.4" width="23.04" height="16.0" rx="4" ry="4" fill="none" stroke="#8a6f8e" stroke-width="2.5" /><path d="M799.28,363.4 V357.0 A6.72,6.72 0 0 1 812.72,357.0 V363.4" fill="none" stroke="#8a6f8e" stroke-width="2.5"/><circle cx="806" cy="370.6" r="2.08" fill="#8a6f8e"/><text x="846" y="357" font-family="'Instrument Sans', system-ui, sans-serif" font-size="20" fill="#1f1d1a" font-weight="700" text-anchor="start">Private</text><text x="846" y="383" font-family="'Instrument Sans', system-ui, sans-serif" font-size="14.5" fill="#4a463f" font-weight="400" text-anchor="start">visible to the owner only</text><rect x="760" y="433" width="360" height="104" rx="16" ry="16" fill="#f4edda" stroke="#b08a3e" stroke-width="1.8" /><rect x="760" y="433" width="6" height="104" rx="3" fill="#b08a3e"/><circle cx="798.0" cy="479.4" r="5.44" fill="none" stroke="#b08a3e" stroke-width="2.3"/><circle cx="814.0" cy="479.4" r="5.44" fill="none" stroke="#b08a3e" stroke-width="2.3"/><path d="M787.6,498.6 Q787.6,486.6 798.0,486.6 Q805.2,486.6 805.2,493.8" fill="none" stroke="#b08a3e" stroke-width="2.3" stroke-linecap="round"/><path d="M806.8,493.8 Q806.8,486.6 814.0,486.6 Q824.4,486.6 824.4,498.6" fill="none" stroke="#b08a3e" stroke-width="2.3" stroke-linecap="round"/><text x="846" y="477" font-family="'Instrument Sans', system-ui, sans-serif" font-size="17.5" fill="#1f1d1a" font-weight="700" text-anchor="start">Shared with users or groups</text><text x="846" y="503" font-family="'Instrument Sans', system-ui, sans-serif" font-size="14.5" fill="#4a463f" font-weight="400" text-anchor="start">visible to allowed users and their groups</text><rect x="760" y="553" width="360" height="104" rx="16" ry="16" fill="#e6efed" stroke="#5f8a86" stroke-width="1.8" /><rect x="760" y="553" width="6" height="104" rx="3" fill="#5f8a86"/><path d="M806,589.0 L819.6,596.2 V606.6 Q819.6,619.4 806,622.6 Q792.4,619.4 792.4,606.6 V596.2 Z" fill="none" stroke="#5f8a86" stroke-width="2.4" stroke-linejoin="round"/><path d="M801.2,605.8 L805.2,610.6 L812.4,600.52" fill="none" stroke="#5f8a86" stroke-width="2.6" stroke-linecap="round" stroke-linejoin="round"/><text x="846" y="597" font-family="'Instrument Sans', system-ui, sans-serif" font-size="20" fill="#1f1d1a" font-weight="700" text-anchor="start">Role-based</text><text x="846" y="623" font-family="'Instrument Sans', system-ui, sans-serif" font-size="14.5" fill="#4a463f" font-weight="400" text-anchor="start">visible by role or permission</text><rect x="1200" y="330" width="360" height="200" rx="16" ry="16" fill="#ffffff" stroke="rgba(31,29,26,0.13)" stroke-width="1.5" /><path d="M1367.4,368 H1386.3 L1392.6,375.2 V404 H1367.4 Z" fill="none" stroke="#5a7a6a" stroke-width="2.4" stroke-linejoin="round"/><path d="M1386.3,368 V375.2 H1392.6" fill="none" stroke="#5a7a6a" stroke-width="2"/><line x1="1372.44" y1="379.7" x2="1381.8" y2="379.7" stroke="#5a7a6a" stroke-width="1.8"/><circle cx="1379.1" cy="391.76" r="5.3999999999999995" fill="none" stroke="#5a7a6a" stroke-width="2.2"/><line x1="1383.24" y1="395.9" x2="1389.0" y2="401.3" stroke="#5a7a6a" stroke-width="2.4" stroke-linecap="round"/><text x="1380.0" y="438" font-family="'Instrument Sans', system-ui, sans-serif" font-size="23" fill="#1f1d1a" font-weight="700" text-anchor="middle">Results returned</text><text x="1380.0" y="470" font-family="'Instrument Sans', system-ui, sans-serif" font-size="16.5" fill="#4a463f" font-weight="400" text-anchor="middle">only permitted content shown</text><text x="1380.0" y="496" font-family="'IBM Plex Mono', ui-monospace, monospace" font-size="15" fill="#3d5f51" font-weight="400" text-anchor="middle">relevant + permitted</text><line x1="275" y1="425" x2="347.0" y2="425.0" stroke="#1f1d1a" stroke-width="2.6" stroke-linecap="round"/><polygon points="356,425 347.0,429.9 347.0,420.1" fill="#1f1d1a"/><text x="317.5" y="409" font-family="'IBM Plex Mono', ui-monospace, monospace" font-size="13.5" fill="#4a463f" font-weight="400" text-anchor="middle">query</text><line x1="660" y1="425" x2="708" y2="425" stroke="#5a7a6a" stroke-width="2.4"/><line x1="708" y1="245.0" x2="708" y2="605.0" stroke="#5a7a6a" stroke-width="2.4"/><line x1="708" y1="245.0" x2="747.0" y2="245.0" stroke="#5a7a6a" stroke-width="2.6" stroke-linecap="round"/><polygon points="756,245.0 747.0,249.9 747.0,240.1" fill="#5a7a6a"/><line x1="708" y1="365.0" x2="747.0" y2="365.0" stroke="#5a7a6a" stroke-width="2.6" stroke-linecap="round"/><polygon points="756,365.0 747.0,369.9 747.0,360.1" fill="#5a7a6a"/><line x1="708" y1="485.0" x2="747.0" y2="485.0" stroke="#5a7a6a" stroke-width="2.6" stroke-linecap="round"/><polygon points="756,485.0 747.0,489.9 747.0,480.1" fill="#5a7a6a"/><line x1="708" y1="605.0" x2="747.0" y2="605.0" stroke="#5a7a6a" stroke-width="2.6" stroke-linecap="round"/><polygon points="756,605.0 747.0,610.0 747.0,600.0" fill="#5a7a6a"/><line x1="1120" y1="245.0" x2="1156" y2="245.0" stroke="#1f1d1a" stroke-width="2.2"/><line x1="1120" y1="365.0" x2="1156" y2="365.0" stroke="#1f1d1a" stroke-width="2.2"/><line x1="1120" y1="485.0" x2="1156" y2="485.0" stroke="#1f1d1a" stroke-width="2.2"/><line x1="1120" y1="605.0" x2="1156" y2="605.0" stroke="#1f1d1a" stroke-width="2.2"/><line x1="1156" y1="245.0" x2="1156" y2="605.0" stroke="#1f1d1a" stroke-width="2.2"/><line x1="1156" y1="425" x2="1187.0" y2="425.0" stroke="#1f1d1a" stroke-width="2.6" stroke-linecap="round"/><polygon points="1196,425 1187.0,429.9 1187.0,420.1" fill="#1f1d1a"/></svg>