<svg xmlns="http://www.w3.org/2000/svg" width="1640" height="430" viewBox="0 200 1640 430"><rect x="0" y="200" width="1640" height="430" rx="0" ry="0" fill="#f8f8f8" /><rect x="45" y="262" width="270" height="300" rx="18" ry="18" fill="#ffffff" stroke="rgba(31,29,26,0.13)" stroke-width="1.5" /><ellipse cx="180.0" cy="301.56" rx="17" ry="5.1" fill="none" stroke="#5a7a6a" stroke-width="2.6"/><path d="M163.0,301.56 V312.44 A17,5.1 0 0 0 197.0,312.44 V301.56" fill="none" stroke="#5a7a6a" stroke-width="2.6"/><path d="M163.0,305.18666666666667 A17,5.1 0 0 0 197.0,305.18666666666667" fill="none" stroke="#5a7a6a" stroke-width="1.8" opacity="0.8"/><path d="M163.0,308.81333333333333 A17,5.1 0 0 0 197.0,308.81333333333333" fill="none" stroke="#5a7a6a" stroke-width="1.8" opacity="0.8"/><text x="180.0" y="360" font-family="'Instrument Sans', system-ui, sans-serif" font-size="24" fill="#1f1d1a" font-weight="700" text-anchor="middle">Content services</text><text x="180.0" y="383" font-family="'IBM Plex Mono', ui-monospace, monospace" font-size="13.5" fill="#4a463f" font-weight="400" text-anchor="middle">source of truth + visibility</text><circle cx="81" cy="409" r="3.2" fill="#5a7a6a"/><text x="97" y="414" font-family="'Instrument Sans', system-ui, sans-serif" font-size="18" fill="#1f1d1a" font-weight="400" text-anchor="start">datasets</text><circle cx="81" cy="434" r="3.2" fill="#5a7a6a"/><text x="97" y="439" font-family="'Instrument Sans', system-ui, sans-serif" font-size="18" fill="#1f1d1a" font-weight="400" text-anchor="start">notebooks</text><circle cx="81" cy="459" r="3.2" fill="#5a7a6a"/><text x="97" y="464" font-family="'Instrument Sans', system-ui, sans-serif" font-size="18" fill="#1f1d1a" font-weight="400" text-anchor="start">competitions</text><circle cx="81" cy="484" r="3.2" fill="#5a7a6a"/><text x="97" y="489" font-family="'Instrument Sans', system-ui, sans-serif" font-size="18" fill="#1f1d1a" font-weight="400" text-anchor="start">users</text><circle cx="81" cy="509" r="3.2" fill="#5a7a6a"/><text x="97" y="514" font-family="'Instrument Sans', system-ui, sans-serif" font-size="18" fill="#1f1d1a" font-weight="400" text-anchor="start">groups</text><circle cx="81" cy="534" r="3.2" fill="#5a7a6a"/><text x="97" y="539" font-family="'Instrument Sans', system-ui, sans-serif" font-size="18" fill="#1f1d1a" font-weight="400" text-anchor="start">discussions</text><rect x="385" y="292" width="235" height="246" rx="18" ry="18" fill="#ffffff" stroke="rgba(31,29,26,0.13)" stroke-width="1.5" /><line x1="514.2" y1="335.0" x2="518.7" y2="335.0" stroke="#5a7a6a" stroke-width="3" stroke-linecap="round"/><line x1="510.8" y1="343.3" x2="514.0" y2="346.5" stroke="#5a7a6a" stroke-width="3" stroke-linecap="round"/><line x1="502.5" y1="346.7" x2="502.5" y2="351.2" stroke="#5a7a6a" stroke-width="3" stroke-linecap="round"/><line x1="494.2" y1="343.3" x2="491.0" y2="346.5" stroke="#5a7a6a" stroke-width="3" stroke-linecap="round"/><line x1="490.8" y1="335.0" x2="486.3" y2="335.0" stroke="#5a7a6a" stroke-width="3" stroke-linecap="round"/><line x1="494.2" y1="326.7" x2="491.0" y2="323.5" stroke="#5a7a6a" stroke-width="3" stroke-linecap="round"/><line x1="502.5" y1="323.3" x2="502.5" y2="318.8" stroke="#5a7a6a" stroke-width="3" stroke-linecap="round"/><line x1="510.8" y1="326.7" x2="514.0" y2="323.5" stroke="#5a7a6a" stroke-width="3" stroke-linecap="round"/><circle cx="502.5" cy="335" r="10.799999999999999" fill="none" stroke="#5a7a6a" stroke-width="2.6"/><circle cx="502.5" cy="335" r="4.5" fill="none" stroke="#5a7a6a" stroke-width="2.4"/><text x="502.5" y="379" font-family="'Instrument Sans', system-ui, sans-serif" font-size="21" fill="#1f1d1a" font-weight="700" text-anchor="middle">Incremental</text><text x="502.5" y="403" font-family="'Instrument Sans', system-ui, sans-serif" font-size="21" fill="#1f1d1a" font-weight="700" text-anchor="middle">indexer</text><circle cx="409" cy="432" r="3.2" fill="#5a7a6a"/><text x="423" y="437" font-family="'Instrument Sans', system-ui, sans-serif" font-size="15.5" fill="#1f1d1a" font-weight="400" text-anchor="start">picks up creates, sharing</text><text x="423" y="458" font-family="'Instrument Sans', system-ui, sans-serif" font-size="15.5" fill="#1f1d1a" font-weight="400" text-anchor="start">changes, deletes</text><circle cx="409" cy="481" r="3.2" fill="#5a7a6a"/><text x="423" y="486" font-family="'Instrument Sans', system-ui, sans-serif" font-size="15.5" fill="#1f1d1a" font-weight="400" text-anchor="start">builds documents with</text><text x="423" y="507" font-family="'Instrument Sans', system-ui, sans-serif" font-size="15.5" fill="#1f1d1a" font-weight="400" text-anchor="start">their access set</text><rect x="685" y="250" width="300" height="330" rx="18" ry="18" fill="#ffffff" stroke="rgba(31,29,26,0.13)" stroke-width="1.5" /><circle cx="831.94" cy="308.94" r="12.24" fill="none" stroke="#5a7a6a" stroke-width="2.8"/><line x1="841.12" y1="318.12" x2="851.15" y2="328.15" stroke="#5a7a6a" stroke-width="3" stroke-linecap="round"/><line x1="826.5" y1="306.22" x2="837.55" y2="306.22" stroke="#5a7a6a" stroke-width="1.8"/><line x1="826.5" y1="310.98" x2="836.36" y2="310.98" stroke="#5a7a6a" stroke-width="1.8"/><text x="835.0" y="364" font-family="'Instrument Sans', system-ui, sans-serif" font-size="25" fill="#1f1d1a" font-weight="700" text-anchor="middle">Elasticsearch</text><rect x="752.0859375" y="376" width="41.390625" height="24" rx="12.0" ry="12.0" fill="#e8eeeb" /><text x="772.78125" y="391" font-family="'IBM Plex Mono', ui-monospace, monospace" font-size="13" fill="#3d5f51" font-weight="600" text-anchor="middle">GKE</text><text x="803.4765625" y="389" font-family="'Instrument Sans', system-ui, sans-serif" font-size="17" fill="#4a463f" font-weight="500" text-anchor="start">on Kubernetes</text><line x1="715" y1="412" x2="955" y2="412" stroke="rgba(31,29,26,0.13)" stroke-width="1.4"/><text x="835.0" y="440" font-family="'Instrument Sans', system-ui, sans-serif" font-size="16.5" fill="#1f1d1a" font-weight="600" text-anchor="middle">documents carry their access set</text><text x="835.0" y="466" font-family="'IBM Plex Mono', ui-monospace, monospace" font-size="15" fill="#3d5f51" font-weight="400" text-anchor="middle">owner · users · groups</text><text x="835.0" y="488" font-family="'IBM Plex Mono', ui-monospace, monospace" font-size="15" fill="#3d5f51" font-weight="400" text-anchor="middle">role · public</text><text x="835.0" y="520" font-family="'Instrument Sans', system-ui, sans-serif" font-size="16" fill="#4a463f" font-weight="400" text-anchor="middle">runs the filtered query</text><rect x="1055" y="292" width="285" height="246" rx="18" ry="18" fill="#e8eeeb" stroke="#5a7a6a" stroke-width="2.4" /><rect x="1055" y="292" width="285" height="46" rx="18" ry="18" fill="#5a7a6a" /><rect x="1055" y="316" width="285" height="22" rx="0" ry="0" fill="#5a7a6a" /><path d="M1074,306.2 L1096,306.2 L1087.42,315.55 L1087.42,326 L1082.58,322.7 L1082.58,315.55 Z" fill="none" stroke="#ffffff" stroke-width="2.6" stroke-linejoin="round"/><text x="1107" y="323" font-family="'Instrument Sans', system-ui, sans-serif" font-size="22" fill="#ffffff" font-weight="700" text-anchor="start">Search service</text><rect x="1278.8125" y="304" width="49.1875" height="24" rx="12.0" ry="12.0" fill="#ffffff" /><text x="1303.40625" y="319" font-family="'IBM Plex Mono', ui-monospace, monospace" font-size="13" fill="#5a7a6a" font-weight="600" text-anchor="middle">gRPC</text><circle cx="1081" cy="365" r="3.2" fill="#5a7a6a"/><text x="1095" y="370" font-family="'Instrument Sans', system-ui, sans-serif" font-size="16.5" fill="#1f1d1a" font-weight="400" text-anchor="start">resolves user</text><text x="1095" y="392" font-family="'Instrument Sans', system-ui, sans-serif" font-size="16.5" fill="#1f1d1a" font-weight="400" text-anchor="start">→ id + groups + roles</text><circle cx="1081" cy="416" r="3.2" fill="#5a7a6a"/><text x="1095" y="421" font-family="'Instrument Sans', system-ui, sans-serif" font-size="16.5" fill="#1f1d1a" font-weight="400" text-anchor="start">builds the access filter</text><circle cx="1081" cy="445" r="3.2" fill="#5a7a6a"/><text x="1095" y="450" font-family="'Instrument Sans', system-ui, sans-serif" font-size="16.5" fill="#1f1d1a" font-weight="700" text-anchor="start">fail-closed</text><rect x="1395" y="340" width="200" height="152" rx="18" ry="18" fill="#ffffff" stroke="rgba(31,29,26,0.13)" stroke-width="1.5" /><rect x="1479.0" y="366.0" width="32" height="20.8" rx="4" ry="4" fill="none" stroke="#5a7a6a" stroke-width="2.6" /><line x1="1488.6" y1="387.92" x2="1501.4" y2="387.92" stroke="#5a7a6a" stroke-width="2.6"/><line x1="1495.0" y1="386.8" x2="1495.0" y2="392.72" stroke="#5a7a6a" stroke-width="2.6"/><text x="1495.0" y="422" font-family="'Instrument Sans', system-ui, sans-serif" font-size="20" fill="#1f1d1a" font-weight="700" text-anchor="middle">Search UI</text><rect x="1466.5078125" y="433" width="56.984375" height="24" rx="12.0" ry="12.0" fill="#e8eeeb" /><text x="1495.0" y="448" font-family="'IBM Plex Mono', ui-monospace, monospace" font-size="13" fill="#3d5f51" font-weight="600" text-anchor="middle">React</text><text x="1495.0" y="470" font-family="'Instrument Sans', system-ui, sans-serif" font-size="15.5" fill="#4a463f" font-weight="400" text-anchor="middle">results + filters</text><line x1="315" y1="415" x2="372.0" y2="415.0" stroke="#1f1d1a" stroke-width="2.6" stroke-linecap="round"/><polygon points="381,415 372.0,419.9 372.0,410.1" fill="#1f1d1a"/><text x="350.0" y="398" font-family="'IBM Plex Mono', ui-monospace, monospace" font-size="13.5" fill="#4a463f" font-weight="400" text-anchor="middle">change events</text><line x1="620" y1="415" x2="672.0" y2="415.0" stroke="#1f1d1a" stroke-width="2.6" stroke-linecap="round"/><polygon points="681,415 672.0,419.9 672.0,410.1" fill="#1f1d1a"/><text x="652.5" y="398" font-family="'IBM Plex Mono', ui-monospace, monospace" font-size="13.5" fill="#4a463f" font-weight="400" text-anchor="middle">index writes</text><line x1="1395" y1="372" x2="1353.0" y2="372.0" stroke="#5a7a6a" stroke-width="2.6" stroke-linecap="round"/><polygon points="1344,372 1353.0,367.1 1353.0,376.9" fill="#5a7a6a"/><text x="1367.5" y="358" font-family="'IBM Plex Mono', ui-monospace, monospace" font-size="12.5" fill="#5a7a6a" font-weight="400" text-anchor="middle">query</text><line x1="1055" y1="372" x2="998.0" y2="372.0" stroke="#5a7a6a" stroke-width="2.6" stroke-linecap="round"/><polygon points="989,372 998.0,367.1 998.0,376.9" fill="#5a7a6a"/><text x="1020.0" y="358" font-family="'IBM Plex Mono', ui-monospace, monospace" font-size="12.5" fill="#5a7a6a" font-weight="400" text-anchor="middle">filtered</text><line x1="985" y1="460" x2="1042.0" y2="460.0" stroke="#1f1d1a" stroke-width="2.6" stroke-linecap="round"/><polygon points="1051,460 1042.0,464.9 1042.0,455.1" fill="#1f1d1a"/><text x="1020.0" y="479" font-family="'IBM Plex Mono', ui-monospace, monospace" font-size="12.5" fill="#4a463f" font-weight="400" text-anchor="middle">hits</text><line x1="1340" y1="460" x2="1382.0" y2="460.0" stroke="#1f1d1a" stroke-width="2.6" stroke-linecap="round"/><polygon points="1391,460 1382.0,464.9 1382.0,455.1" fill="#1f1d1a"/><text x="1367.5" y="479" font-family="'IBM Plex Mono', ui-monospace, monospace" font-size="12.5" fill="#4a463f" font-weight="400" text-anchor="middle">results</text></svg>